<svg height="512pt" viewBox="-45 0 511 512" width="512pt" xmlns="http://www.w3.org/2000/svg"><path d="m346.007812 140.738281 15.347657-22.398437c12.644531 5.398437 27.765625 1.296875 35.808593-10.445313 9.171876-13.390625 5.746094-31.757812-7.648437-40.929687l-26.273437-18.003906c-13.371094-9.160157-31.761719-5.753907-40.933594 7.648437-4.429688 6.464844-6.074219 14.296875-4.621094 22.035156 1.085938 5.792969 3.789062 11.015625 7.8125 15.125l-15.480469 22.585938c-23.078125-12.347657-48.417969-20.320313-74.863281-23.355469v-26.335938h15.910156c1.742188 0 3.507813-.140624 5.222656-.410156 4.097657-.652344 6.894532-4.5 6.242188-8.601562-.648438-4.109375-4.5-6.90625-8.597656-6.257813-2.101563.335938 4.363281.234375-83.207032.234375-10.09375 0-18.292968-8.210937-18.292968-18.296875 0-10.085937 8.199218-18.296875 18.292968-18.296875h80.339844c10.09375 0 18.292969 8.210938 18.292969 18.296875 0 1.515625-.179687 3.027344-.5625 4.480469-1.019531 4.03125 1.414063 8.121094 5.433594 9.144531 4.019531 1.019531 8.121093-1.40625 9.144531-5.433593.679688-2.667969 1.023438-5.425782 1.023438-8.191407 0-18.386719-14.949219-33.332031-33.332032-33.332031h-80.339844c-18.382812 0-33.332031 14.945312-33.332031 33.332031 0 18.375 14.949219 33.332031 33.332031 33.332031h15.910157v26.34375c-26.175781 3.046876-51.597657 11.027344-74.804688 23.429688l-15.539062-22.667969c4.019531-4.109375 6.726562-9.332031 7.808593-15.125 4.839844-25.765625-24.097656-44.386719-45.550781-29.683593l-26.273437 18.003906c-13.394532 9.171875-16.824219 27.539062-7.648438 40.929687 8.140625 11.882813 23.371094 15.785157 35.808594 10.445313l15.367188 22.425781c-11.257813 9.445313-21.515626 20.03125-30.507813 31.5-2.566406 3.265625-1.984375 7.996094 1.285156 10.554687 3.269531 2.566407 7.988281 1.996094 10.554688-1.273437 13.792969-17.625 30.9375-33.101563 50.15625-45.132813 130.683593-81.601562 298.773437 12.929688 298.773437 165.269532 0 19.054687-2.765625 37.960937-8.21875 56.195312-1.195312 3.980469 1.0625 8.171875 5.039063 9.363282 4.058593 1.183593 8.183593-1.128907 9.363281-5.050782 5.875-19.636718 8.851562-40 8.851562-60.507812 0-60.03125-26.128906-119.769532-75.09375-160.945313zm-294.433593-35.328125c-5.433594 1.011719-11.21875-1.164062-14.546875-6.015625-4.488282-6.554687-2.804688-15.539062 3.738281-20.027343l26.285156-18.007813c6.632813-4.53125 15.636719-2.664063 20.019531 3.742187 4.414063 6.433594 2.894532 15.464844-3.738281 20.027344-29.496093 20.214844-28.082031 19.585938-31.757812 20.28125zm36.117187 26.09375-14.523437-21.183594 11.054687-7.578124 14.566406 21.261718c-3.769531 2.378906-7.46875 4.875-11.097656 7.5zm132.425782-39.699218c-6.195313-.28125-12.234376-.277344-18.445313-.007813v-25.132813h18.445313zm126.554687-32.941407c7.484375 0 9.652344 4.417969 34.351563 20.503907 12.785156 8.769531 4.464843 28.886718-10.804688 26.042968-3.976562-.75-2.886719-.496094-31.757812-20.28125-11.617188-8-6.015626-26.265625 8.210937-26.265625zm-23.621094 65.082031 14.515625-21.203124 11.058594 7.578124-14.496094 21.144532c-3.617187-2.636719-7.308594-5.144532-11.078125-7.519532zm0 0"/><path d="m397.523438 381.296875c-3.757813-1.761719-8.226563-.148437-9.992188 3.609375-32.566406 69.3125-102.3125 112.058594-176.515625 112.058594-149.824219 0-243.375-161.734375-169.96875-291.398438 2.046875-3.609375.773437-8.199218-2.835937-10.246094-3.609376-2.042968-8.199219-.773437-10.246094 2.835938-78.847656 139.226562 21.289062 313.84375 183.050781 313.84375 79.617187 0 154.902344-45.726562 190.117187-120.695312 1.765626-3.761719.152344-8.242188-3.609374-10.007813zm0 0"/><path d="m210.683594 473.183594c105.199218-.019532 185.164062-93.125 169.800781-196.582032-22.339844-150.171874-216.164063-199.863281-307.316406-76.898437-84.070313 113.40625-1.832031 273.480469 137.515625 273.480469zm-11.054688-327.316406c5.140625.777343 54.175782-6.964844 104.40625 30.277343 69.449219 51.484375 84 149.34375 32.511719 218.796875-51.359375 69.28125-149.5 83.867188-218.789063 32.511719-41.34375-30.648437-63.214843-77.953125-63.214843-125.851563 0-81.296874 62.617187-149.722656 145.085937-155.734374zm0 0"/><path d="m149.492188 327.746094c14.128906 0 26.113281-7.628906 30.066406-18.089844h23.820312v83.765625c0 4.152344 3.363282 7.519531 7.515625 7.519531 4.15625 0 7.519531-3.367187 7.519531-7.519531v-83.765625h84.039063c4.152344 0 7.519531-3.367188 7.519531-7.519531 0-4.152344-3.367187-7.519531-7.519531-7.519531h-84.039063v-29.59375c10.464844-3.21875 18.089844-12.976563 18.089844-24.480469v-30.957031c0-4.148438-3.363281-7.515626-7.515625-7.515626-4.15625 0-7.519531 3.367188-7.519531 7.515626v19.265624h-3.054688v-19.265624c0-4.148438-3.363281-7.515626-7.519531-7.515626-4.152343 0-7.515625 3.367188-7.515625 7.515626v19.265624h-3.054687v-19.265624c0-4.148438-3.367188-7.515626-7.519531-7.515626-4.152344 0-7.519532 3.367188-7.519532 7.515626v30.957031c0 11.503906 7.628906 21.261719 18.09375 24.480469v29.59375h-23.820312c-3.953125-10.460938-15.933594-18.085938-30.066406-18.085938-15.558594 0-37.265626 9.742188-37.265626 25.605469 0 15.867187 21.707032 25.609375 37.265626 25.609375zm51.382812-83.855469h20.042969c-1.40625 4.191406-5.363281 7.222656-10.019531 7.222656-4.660157 0-8.617188-3.03125-10.023438-7.222656zm-51.382812 47.675781c8.746093 0 16.414062 4.941406 16.414062 10.570313 0 5.632812-7.667969 10.574219-16.414062 10.574219-11.023438 0-22.226563-6.785157-22.226563-10.574219 0-3.789063 11.203125-10.570313 22.226563-10.570313zm0 0"/><path d="m211.546875 188.050781c4.15625 0 7.519531-3.367187 7.519531-7.515625v-14.59375c0-4.152344-3.363281-7.519531-7.519531-7.519531-4.152344 0-7.515625 3.367187-7.515625 7.519531v14.59375c0 4.148438 3.363281 7.515625 7.515625 7.515625zm0 0"/><path d="m144.316406 200.210938c2.089844 3.613281 6.695313 4.820312 10.273438 2.753906 3.59375-2.078125 4.828125-6.675782 2.75-10.273438l-7.296875-12.636718c-2.074219-3.59375-6.675781-4.824219-10.269531-2.75-3.597657 2.074218-4.828126 6.671874-2.753907 10.269531zm0 0"/><path d="m89.804688 239.816406c12.128906 6.664063 12.996093 8.304688 16.394531 8.304688 7.671875 0 10.40625-10.199219 3.765625-14.03125l-12.640625-7.296875c-3.597657-2.078125-8.195313-.84375-10.269531 2.75-2.078126 3.597656-.84375 8.195312 2.75 10.273437zm0 0"/><path d="m75.039062 308.664062h14.59375c4.152344 0 7.515626-3.367187 7.515626-7.519531 0-4.152343-3.363282-7.515625-7.515626-7.515625h-14.59375c-4.15625 0-7.519531 3.363282-7.519531 7.515625 0 4.152344 3.363281 7.519531 7.519531 7.519531zm0 0"/><path d="m101.792969 355.355469-12.640625 7.296875c-3.59375 2.074218-4.828125 6.671875-2.75 10.269531 2.085937 3.613281 6.691406 4.820313 10.269531 2.75l12.636719-7.296875c3.597656-2.074219 4.828125-6.671875 2.753906-10.269531-2.074219-3.59375-6.675781-4.828125-10.269531-2.75zm0 0"/><path d="m153.457031 399.980469c-3.597656-2.078125-8.195312-.84375-10.269531 2.75l-7.296875 12.640625c-2.910156 5.035156.777344 11.277344 6.503906 11.277344 2.597657 0 5.125-1.347657 6.519531-3.757813l7.292969-12.640625c2.078125-3.59375.84375-8.195312-2.75-10.269531zm0 0"/><path d="m211.246094 415.546875c-4.152344 0-7.519532 3.363281-7.519532 7.515625v14.59375c0 4.152344 3.367188 7.519531 7.519532 7.519531s7.519531-3.367187 7.519531-7.519531v-14.59375c0-4.152344-3.367187-7.515625-7.519531-7.515625zm0 0"/><path d="m277.472656 403.382812c-2.074218-3.59375-6.675781-4.828124-10.269531-2.75-3.59375 2.078126-4.828125 6.675782-2.75 10.269532l7.296875 12.640625c1.390625 2.410156 3.917969 3.757812 6.515625 3.757812 5.722656 0 9.417969-6.234375 6.503906-11.277343zm0 0"/><path d="m331.984375 363.78125-12.636719-7.296875c-3.597656-2.078125-8.195312-.84375-10.269531 2.753906-2.078125 3.59375-.84375 8.195313 2.75 10.269531l12.640625 7.296876c1.183594.683593 2.476562 1.007812 3.75 1.007812 2.597656 0 5.125-1.347656 6.519531-3.761719 2.074219-3.59375.84375-8.191406-2.753906-10.269531zm0 0"/><path d="m324.644531 302.453125c0 4.152344 3.363281 7.515625 7.515625 7.515625h14.59375c4.15625 0 7.519532-3.363281 7.519532-7.515625s-3.363282-7.519531-7.519532-7.519531h-14.59375c-4.152344 0-7.515625 3.367187-7.515625 7.519531zm0 0"/><path d="m320 248.242188 12.636719-7.296876c3.597656-2.074218 4.828125-6.671874 2.753906-10.269531-2.074219-3.59375-6.671875-4.828125-10.269531-2.75l-12.640625 7.296875c-3.59375 2.074219-4.828125 6.671875-2.75 10.269532 2.078125 3.597656 6.675781 4.824218 10.269531 2.75zm0 0"/><path d="m268.335938 203.617188c3.589843 2.070312 8.191406.851562 10.269531-2.75l7.296875-12.640626c2.074218-3.59375.84375-8.195312-2.753906-10.269531-3.597657-2.078125-8.195313-.84375-10.269532 2.75l-7.296875 12.640625c-2.074219 3.59375-.84375 8.191406 2.753907 10.269532zm0 0"/></svg>